<svg width="27" height="11" viewBox="0 0 27 11" fill="none" xmlns="http://www.w3.org/2000/svg">
<path d="M0.205953 10V0.129999H6.58995V1.194H1.46595V4.456H6.26795V5.52H1.46595V8.936H6.58995V10H0.205953ZM8.46377 10V0.129999H9.47177L15.6598 8.306H15.3238V0.129999H16.5418V10H15.5478L9.35977 1.824H9.68177V10H8.46377ZM23.5144 10.126C22.4318 10.126 21.5218 9.92533 20.7844 9.524C20.0471 9.11333 19.4918 8.53 19.1184 7.774C18.7544 7.018 18.5724 6.11733 18.5724 5.072C18.5724 4.02667 18.7684 3.126 19.1604 2.37C19.5524 1.614 20.1124 1.03067 20.8404 0.62C21.5778 0.209333 22.4598 0.00399935 23.4864 0.00399935C24.2051 0.00399935 24.8304 0.106666 25.3624 0.312C25.8944 0.517333 26.3704 0.816 26.7904 1.208L26.3004 2.244C26.0018 1.98267 25.7124 1.77267 25.4324 1.614C25.1524 1.45533 24.8584 1.34333 24.5504 1.278C24.2518 1.20333 23.8971 1.166 23.4864 1.166C22.3384 1.166 21.4611 1.50667 20.8544 2.188C20.2478 2.86933 19.9444 3.83533 19.9444 5.086C19.9444 6.35533 20.2384 7.32133 20.8264 7.984C21.4144 8.64667 22.3291 8.978 23.5704 8.978C24.0091 8.978 24.4384 8.936 24.8584 8.852C25.2784 8.768 25.6798 8.64667 26.0624 8.488L25.7964 9.146V5.8H23.3184V4.792H26.9164V9.412C26.4964 9.62667 25.9784 9.79933 25.3624 9.93C24.7464 10.0607 24.1304 10.126 23.5144 10.126Z" fill="#B4B4B4"/>
</svg>
