<svg width="14" height="14" viewBox="0 0 14 14" fill="none" xmlns="http://www.w3.org/2000/svg">
<path d="M11.4494 2.55063C11.3299 1.90509 10.9884 1.32169 10.4839 0.901514C9.97951 0.481336 9.344 0.250853 8.6875 0.25H3.0625C2.31658 0.25 1.60121 0.546316 1.07376 1.07376C0.546316 1.60121 0.25 2.31658 0.25 3.0625V10.9375C0.25 11.6834 0.546316 12.3988 1.07376 12.9262C1.60121 13.4537 2.31658 13.75 3.0625 13.75H10.9375C11.6834 13.75 12.3988 13.4537 12.9262 12.9262C13.4537 12.3988 13.75 11.6834 13.75 10.9375V5.3125C13.7491 4.656 13.5187 4.02049 13.0985 3.51607C12.6783 3.01165 12.0949 2.67011 11.4494 2.55063ZM12.625 10.9375C12.625 11.3851 12.4472 11.8143 12.1307 12.1307C11.8143 12.4472 11.3851 12.625 10.9375 12.625H3.0625C2.61495 12.625 2.18572 12.4472 1.86926 12.1307C1.55279 11.8143 1.375 11.3851 1.375 10.9375V3.0625C1.375 2.61495 1.55279 2.18572 1.86926 1.86926C2.18572 1.55279 2.61495 1.375 3.0625 1.375H8.6875C9.03566 1.37598 9.37499 1.48462 9.65897 1.68603C9.94296 1.88744 10.1577 2.17175 10.2737 2.5H4.1875C4.03832 2.5 3.89524 2.55926 3.78975 2.66475C3.68426 2.77024 3.625 2.91332 3.625 3.0625C3.625 3.21168 3.68426 3.35476 3.78975 3.46025C3.89524 3.56574 4.03832 3.625 4.1875 3.625H10.9375C11.1296 3.62378 11.3203 3.65811 11.5 3.72625C11.8282 3.8423 12.1126 4.05704 12.314 4.34103C12.5154 4.62501 12.624 4.96434 12.625 5.3125V10.9375Z" fill="white"/>
</svg>
